<svg id="Capa_1" enable-background="new 0 0 512.099 512.099" height="512" viewBox="0 0 512.099 512.099" width="512" xmlns="http://www.w3.org/2000/svg"><g><path d="m132.69 46.35 22.699-.692c4.653-.142 6.757-5.884 3.298-8.999l-14.455-13.014c-6.308-5.678-2.29-16.145 6.198-16.145h57.711 97.765c38.504 0 69.718 31.214 69.718 69.718v98.446h-237.201v-80.922c0-6.224-1.467-12.361-4.281-17.912l-9.002-17.757c-2.903-5.726 1.133-12.527 7.55-12.723z" fill="#365e7d"/><path d="m305.906 7.5h-21.66c38.504 0 69.718 31.214 69.718 69.718v98.446h21.66v-98.446c0-38.504-31.214-69.718-69.718-69.718z" fill="#2b4d66"/><path d="m395.185 504.5h-278.272c-4.053 0-7.338-3.285-7.338-7.338v-140.61c0-53.704 43.536-97.24 97.24-97.24h98.468c53.704 0 97.24 43.536 97.24 97.24v140.61c0 4.053-3.285 7.338-7.338 7.338z" fill="#61a2f9"/><path d="m305.283 259.313h-27.526c53.704 0 97.24 43.536 97.24 97.24v147.947h20.188c4.053 0 7.338-3.285 7.338-7.338v-140.61c0-53.704-43.536-97.239-97.24-97.239z" fill="#5490f9"/><g><path d="m256.049 334.418-27.084 19.765c-2.529 1.846-6.122.728-7.157-2.227l-32.96-94.069 19.752-19.328 13.368 36.829z" fill="#f6f1f1"/><path d="m256.049 334.418 27.084 19.765c2.529 1.846 6.122.728 7.157-2.227l32.96-94.069-19.752-19.328-13.368 36.829z" fill="#f6f1f1"/><path d="m256.049 334.418 34.081-59.03h-68.162z" fill="#e2a770"/></g><path d="m256.049 292.969c-52.287 0-94.674-42.387-94.674-94.674v-81.98c0-6.754 1.83-13.018 4.99-18.371 9.852-16.689 32.365-20.445 47.759-8.671 28.249 21.606 59.114 28.564 93.26 17.145 20.436-6.834 42.336 7.165 43.303 28.692.024.545.037 1.092.037 1.642v61.544c0 52.286-42.388 94.673-94.675 94.673z" fill="#f1d0a5"/><g><path d="m350.687 135.11c-.967-21.527-22.867-35.526-43.303-28.692-.177.059-.354.111-.531.169 11.813 4.165 20.926 14.812 21.542 28.523.024.545.037 1.092.037 1.642v61.544c0 48.516-36.495 88.501-83.528 94.018 3.656.429 7.374.656 11.146.656 52.287 0 94.674-42.387 94.674-94.674v-61.544c0-.55-.013-1.097-.037-1.642z" fill="#f1b986"/></g><path d="m161.375 189.461h-15.18c-10.531 0-19.069-8.537-19.069-19.068 0-10.531 8.537-19.068 19.069-19.068h15.18z" fill="#e2a770"/><path d="m350.723 197.364h17.901c14.106 0 25.542-11.435 25.542-25.542v-2.86c0-14.106-11.435-25.542-25.542-25.542h-17.901z" fill="#61a2f9"/><path d="m368.625 143.421h-17.901v.005c14.012.11 25.337 11.499 25.337 25.536v2.86c0 14.038-11.326 25.426-25.337 25.537v.005h17.901c14.106 0 25.542-11.435 25.542-25.542v-2.86c-.001-14.106-11.436-25.541-25.542-25.541z" fill="#5490f9"/><path d="m301.834 247.697h-19.634c-5.073 0-9.186-4.113-9.186-9.186v-4.184c0-5.073 4.113-9.186 9.186-9.186h19.634c5.073 0 9.186 4.113 9.186 9.186v4.184c0 5.073-4.113 9.186-9.186 9.186z" fill="#365e7d"/><path d="m359.034 504.63h-205.97l-18.258-97.952c-1.774-9.519 5.53-18.31 15.213-18.31h212.061c9.683 0 16.987 8.792 15.213 18.31z" fill="#365e7d"/><path d="m362.08 388.368h-20.31c9.683 0 16.987 8.792 15.213 18.31l-18.258 97.952h20.31l18.258-97.952c1.774-9.518-5.531-18.31-15.213-18.31z" fill="#2b4d66"/><circle cx="256.049" cy="465.49" fill="#f6f1f1" r="21.31"/><path d="m256.049 444.181c-2.833 0-5.531.564-8.004 1.568 7.799 3.166 13.305 10.805 13.305 19.741s-5.506 16.575-13.305 19.741c2.473 1.004 5.171 1.568 8.004 1.568 11.769 0 21.31-9.541 21.31-21.31s-9.541-21.308-21.31-21.308z" fill="#dae4ea"/><path d="m353.724 388.368h-51.252v-16.294c0-4.845 3.927-8.772 8.772-8.772h33.708c4.845 0 8.772 3.927 8.772 8.772z" fill="#f6f1f1"/><g><path d="m393.84 300.609c-2.214-3.501-6.849-4.543-10.348-2.326-3.5 2.215-4.542 6.848-2.326 10.348 9.065 14.324 13.857 30.896 13.857 47.922v140.447h-26.938l16.58-88.947c1.255-6.736-.536-13.622-4.915-18.893-4.379-5.27-10.819-8.292-17.671-8.292h-.856v-8.795c0-8.972-7.3-16.271-16.271-16.271h-33.708c-8.973 0-16.272 7.3-16.272 16.271v8.795h-144.953c-6.852 0-13.293 3.022-17.672 8.293s-6.17 12.156-4.914 18.892l7.191 38.576c.76 4.073 4.684 6.763 8.747 5.999 4.072-.759 6.758-4.676 5.999-8.747l-7.191-38.576c-.436-2.338.186-4.729 1.706-6.558 1.52-1.83 3.756-2.879 6.134-2.879h212.061c2.378 0 4.613 1.049 6.133 2.878 1.521 1.83 2.143 4.221 1.707 6.559l-17.093 91.695h-193.555l-4.313-23.132c-.76-4.072-4.684-6.757-8.747-5.999-4.072.759-6.758 4.676-5.999 8.747l3.8 20.384h-26.938v-140.447c0-20.544 7.119-40.621 20.045-56.532 11.87-14.612 28.143-25.18 46.163-30.076.917.931 1.851 1.845 2.803 2.741l28.645 81.75c2.691 7.686 12.08 10.603 18.656 5.806l22.662-16.539 22.662 16.538c6.557 4.787 15.952 1.919 18.657-5.804l28.643-81.75c.95-.894 1.883-1.807 2.799-2.736 12.446 3.382 24.159 9.482 34.083 17.801 1.405 1.178 3.114 1.752 4.814 1.752 2.142 0 4.269-.912 5.752-2.682 2.66-3.175 2.244-7.905-.93-10.566-9.827-8.236-21.158-14.609-33.242-18.768 3.107-4.357 5.875-8.969 8.279-13.795h8.156c11.25 0 20.403-9.152 20.403-20.402v-19.295c14.616-3.407 25.541-16.533 25.541-32.173v-2.859c0-13.021-7.572-24.302-18.542-29.683v-62.063c0-42.578-34.64-77.218-77.218-77.218h-91.818c-4.143 0-7.5 3.357-7.5 7.5s3.357 7.5 7.5 7.5h91.818c34.307 0 62.218 27.911 62.218 62.218v58.703h-9.919c-.534-27.439-27.896-45.073-53.2-36.616-30.628 10.246-58.865 5.012-86.324-15.988-26.176-20.022-64.806-2.539-64.806 32.999v27.509h-7.681c-.091 0-.181.006-.271.007-1.187-43.056 3.119-54.194-5.091-70.393l-9.002-17.757c-.422-.835.154-1.805 1.089-1.835l22.699-.692c5.198-.158 9.714-3.415 11.504-8.299 1.79-4.883.45-10.288-3.416-13.771l-14.456-13.014c-1.216-1.094-.456-3.071 1.18-3.071h33.671c4.143 0 7.5-3.357 7.5-7.5s-3.357-7.5-7.5-7.5h-33.671c-6.999 0-13.142 4.222-15.649 10.757-2.508 6.533-.768 13.78 4.434 18.463l10.13 9.119-16.882.516c-5.593.17-10.636 3.145-13.491 7.956s-3.05 10.663-.52 15.654l9.001 17.756c2.271 4.479 3.471 9.501 3.471 14.521v53.93c-6.826 4.813-11.297 12.752-11.297 21.72 0 14.649 11.919 26.568 26.568 26.568h7.681c.176 1.097-2.25 30.824 18.942 60.533-18.419 6.342-34.943 17.809-47.338 33.067-15.092 18.577-23.403 42.014-23.403 65.991v140.609c0 8.182 6.656 14.838 14.838 14.838 15.168.008 249.939.218 278.272 0 8.182 0 14.838-6.656 14.838-14.838v-140.607c-.001-19.871-5.597-39.216-16.185-55.944zm-83.868 80.259v-8.795c0-.701.571-1.271 1.272-1.271h33.708c.701 0 1.271.57 1.271 1.271v8.795zm-82.347-34.992-20.236-57.755c5.578 3.034 11.472 5.558 17.613 7.521l21.183 36.69zm28.424-26.458-11.302-19.577c3.713.411 7.482.628 11.302.628s7.59-.218 11.302-.628zm28.425 26.458-18.561-13.544 21.183-36.69c6.141-1.963 12.035-4.487 17.613-7.521zm71.248-117.184h-2.115c2.374-7.602 3.874-15.585 4.399-23.828h3.118v18.426c.001 2.979-2.423 5.402-5.402 5.402zm30.944-56.87c0 9.948-8.093 18.042-18.041 18.042h-10.401v-38.943h10.401c9.948 0 18.041 8.094 18.041 18.042zm-240.472 10.139c-6.379 0-11.568-5.189-11.568-11.568s5.189-11.568 11.568-11.568h7.681v23.137h-7.681zm22.681-65.646c0-22.772 24.102-33.775 40.692-21.085 31.274 23.919 64.981 30.075 100.195 18.3 16.119-5.386 33.461 5.822 33.461 23.222v61.543c0 10.687-1.937 20.928-5.472 30.397h-20.231c-2.318-6.432-8.465-11.052-15.686-11.052h-19.634c-8.227 0-15.066 5.992-16.424 13.837-7.52 3.667-14.68 3.151-22.304-1.569-3.521-2.181-8.145-1.093-10.325 2.429-2.181 3.522-1.093 8.145 2.429 10.325 6.697 4.146 13.585 6.219 20.473 6.219 3.918 0 7.835-.695 11.718-2.036 2.889 4.984 8.27 8.352 14.433 8.352h19.634c7.391 0 13.666-4.835 15.852-11.505h12.757c-15.335 25.037-42.945 41.777-74.394 41.777-48.067 0-87.174-39.106-87.174-87.175zm134.645 122.196c0 .93-.756 1.687-1.686 1.687h-19.634c-.93 0-1.686-.757-1.686-1.687v-4.185c0-.93.756-1.686 1.686-1.686h19.634c.93 0 1.686.756 1.686 1.686z"/><path d="m212.626 175.954c4.143 0 7.5-3.357 7.5-7.5v-10.443c0-4.143-3.357-7.5-7.5-7.5s-7.5 3.357-7.5 7.5v10.443c0 4.143 3.357 7.5 7.5 7.5z"/><path d="m299.472 175.954c4.143 0 7.5-3.357 7.5-7.5v-10.443c0-4.143-3.357-7.5-7.5-7.5s-7.5 3.357-7.5 7.5v10.443c0 4.143 3.357 7.5 7.5 7.5z"/><path d="m284.858 465.49c0-15.886-12.924-28.81-28.81-28.81s-28.81 12.924-28.81 28.81 12.924 28.81 28.81 28.81 28.81-12.924 28.81-28.81zm-42.619 0c0-7.614 6.195-13.81 13.81-13.81 7.614 0 13.81 6.195 13.81 13.81s-6.195 13.81-13.81 13.81c-7.614 0-13.81-6.196-13.81-13.81z"/></g></g></svg>