<svg id="Layer_1" enable-background="new 0 0 256 256" height="512" viewBox="0 0 256 256" width="512" xmlns="http://www.w3.org/2000/svg"><g><g><path d="m242.312 214.6h-228.624c-5.35 0-9.688-4.338-9.688-9.689v-171.429c0-5.351 4.338-9.688 9.688-9.688h228.624c5.351 0 9.688 4.338 9.688 9.688v171.429c0 5.351-4.338 9.689-9.688 9.689z" fill="#f4efed"/></g><g><path d="m110.665 86.931v-14.884h-8.237c-.957-4.678-2.804-9.03-5.347-12.882l5.832-5.832-10.524-10.525-5.832 5.832c-3.852-2.543-8.204-4.39-12.882-5.347v-8.237h-14.885v8.237c-4.678.957-9.03 2.804-12.882 5.347l-5.832-5.832-10.525 10.525 5.832 5.832c-2.543 3.852-4.39 8.204-5.347 12.882h-8.236v14.884h8.237c.957 4.678 2.804 9.03 5.347 12.882l-5.832 5.832 10.525 10.525 5.832-5.832c3.852 2.543 8.204 4.39 12.882 5.347v8.237h14.884v-8.237c4.678-.957 9.03-2.804 12.882-5.347l5.832 5.832 10.525-10.525-5.832-5.832c2.543-3.852 4.39-8.204 5.347-12.882zm-44.433 14.833c-12.302 0-22.275-9.973-22.275-22.275s9.973-22.275 22.275-22.275 22.275 9.973 22.275 22.275-9.972 22.275-22.275 22.275z" fill="#fcc24c"/></g><g><path d="m110.665 86.931v-14.884h-8.237c-.957-4.678-2.804-9.03-5.347-12.882l5.832-5.832-10.524-10.525-5.832 5.832c-3.852-2.543-8.204-4.39-12.882-5.347v-8.237h-14.885v8.237c-4.678.957-9.03 2.804-12.882 5.347l-5.832-5.832-10.525 10.525 5.832 5.832c-2.543 3.852-4.39 8.204-5.347 12.882h-8.236v14.884h8.237c.957 4.678 2.804 9.03 5.347 12.882l-5.832 5.832 10.525 10.525 5.832-5.832c3.852 2.543 8.204 4.39 12.882 5.347v8.237h14.884v-8.237c4.678-.957 9.03-2.804 12.882-5.347l5.832 5.832 10.525-10.525-5.832-5.832c2.543-3.852 4.39-8.204 5.347-12.882zm-44.433 14.833c-12.302 0-22.275-9.973-22.275-22.275s9.973-22.275 22.275-22.275 22.275 9.973 22.275 22.275-9.972 22.275-22.275 22.275z" fill="#fcc24c"/></g><g><path d="m73.675 125.922h-14.885c-1.104 0-2-.896-2-2v-6.64c-3.73-.929-7.283-2.404-10.598-4.4l-4.702 4.702c-.781.781-2.047.781-2.828 0l-10.524-10.524c-.781-.781-.781-2.047 0-2.828l4.701-4.703c-1.996-3.313-3.471-6.866-4.399-10.598h-6.64c-1.104 0-2-.896-2-2v-14.884c0-1.104.896-2 2-2h6.64c.929-3.731 2.403-7.284 4.399-10.598l-4.701-4.703c-.781-.781-.781-2.047 0-2.828l10.524-10.525c.75-.75 2.078-.75 2.828 0l4.702 4.702c3.313-1.996 6.866-3.471 10.598-4.4v-6.64c0-1.104.896-2 2-2h14.885c1.104 0 2 .896 2 2v6.64c3.731.929 7.284 2.404 10.598 4.4l4.702-4.702c.781-.781 2.047-.781 2.828 0l10.525 10.525c.375.375.586.884.586 1.414s-.211 1.039-.586 1.414l-4.702 4.703c1.996 3.313 3.471 6.866 4.399 10.598h6.64c1.104 0 2 .896 2 2v14.884c0 1.104-.896 2-2 2h-6.64c-.929 3.731-2.403 7.284-4.399 10.598l4.702 4.703c.375.375.586.884.586 1.414s-.211 1.039-.586 1.414l-10.525 10.524c-.781.781-2.047.781-2.828 0l-4.702-4.702c-3.314 1.996-6.867 3.471-10.598 4.4v6.64c0 1.104-.896 2-2 2zm-12.885-4h10.885v-6.237c0-.95.668-1.769 1.599-1.959 4.348-.889 8.446-2.591 12.182-5.056.791-.526 1.843-.417 2.516.255l4.418 4.417 7.697-7.696-4.418-4.418c-.672-.671-.778-1.723-.255-2.516 2.466-3.735 4.167-7.833 5.057-12.181.19-.931 1.009-1.599 1.959-1.599h6.236v-10.885h-6.236c-.95 0-1.769-.668-1.959-1.599-.89-4.348-2.591-8.446-5.057-12.181-.523-.793-.417-1.845.255-2.516l4.418-4.418-7.697-7.696-4.418 4.417c-.672.672-1.724.78-2.516.255-3.734-2.465-7.833-4.167-12.182-5.056-.931-.19-1.599-1.009-1.599-1.959v-6.237h-10.885v6.237c0 .95-.668 1.769-1.599 1.959-4.349.89-8.447 2.591-12.182 5.056-.793.523-1.845.417-2.516-.255l-4.418-4.417-7.696 7.696 4.417 4.418c.672.672.778 1.723.255 2.516-2.466 3.735-4.167 7.833-5.057 12.181-.19.931-1.009 1.599-1.959 1.599h-6.235v10.884h6.236c.95 0 1.769.668 1.959 1.599.89 4.348 2.591 8.446 5.057 12.181.523.793.417 1.844-.255 2.516l-4.417 4.418 7.696 7.696 4.418-4.417c.672-.671 1.722-.779 2.516-.255 3.735 2.465 7.834 4.167 12.182 5.056.931.19 1.599 1.009 1.599 1.959v6.238zm5.442-18.158c-13.385 0-24.274-10.89-24.274-24.275s10.89-24.275 24.274-24.275c13.386 0 24.275 10.89 24.275 24.275s-10.889 24.275-24.275 24.275zm0-44.55c-11.18 0-20.274 9.095-20.274 20.275s9.095 20.275 20.274 20.275 20.275-9.095 20.275-20.275-9.095-20.275-20.275-20.275z" fill="#690589"/></g><g><path d="m73.675 125.922h-14.885c-1.104 0-2-.896-2-2v-6.64c-3.73-.929-7.283-2.404-10.598-4.4l-4.702 4.702c-.781.781-2.047.781-2.828 0l-10.524-10.524c-.781-.781-.781-2.047 0-2.828l4.701-4.703c-1.996-3.313-3.471-6.866-4.399-10.598h-6.64c-1.104 0-2-.896-2-2v-14.884c0-1.104.896-2 2-2h6.64c.929-3.731 2.403-7.284 4.399-10.598l-4.701-4.703c-.781-.781-.781-2.047 0-2.828l10.524-10.525c.75-.75 2.078-.75 2.828 0l4.702 4.702c3.313-1.996 6.866-3.471 10.598-4.4v-6.64c0-1.104.896-2 2-2h14.885c1.104 0 2 .896 2 2v6.64c3.731.929 7.284 2.404 10.598 4.4l4.702-4.702c.781-.781 2.047-.781 2.828 0l10.525 10.525c.375.375.586.884.586 1.414s-.211 1.039-.586 1.414l-4.702 4.703c1.996 3.313 3.471 6.866 4.399 10.598h6.64c1.104 0 2 .896 2 2v14.884c0 1.104-.896 2-2 2h-6.64c-.929 3.731-2.403 7.284-4.399 10.598l4.702 4.703c.375.375.586.884.586 1.414s-.211 1.039-.586 1.414l-10.525 10.524c-.781.781-2.047.781-2.828 0l-4.702-4.702c-3.314 1.996-6.867 3.471-10.598 4.4v6.64c0 1.104-.896 2-2 2zm-12.885-4h10.885v-6.237c0-.95.668-1.769 1.599-1.959 4.348-.889 8.446-2.591 12.182-5.056.791-.526 1.843-.417 2.516.255l4.418 4.417 7.697-7.696-4.418-4.418c-.672-.671-.778-1.723-.255-2.516 2.466-3.735 4.167-7.833 5.057-12.181.19-.931 1.009-1.599 1.959-1.599h6.236v-10.885h-6.236c-.95 0-1.769-.668-1.959-1.599-.89-4.348-2.591-8.446-5.057-12.181-.523-.793-.417-1.845.255-2.516l4.418-4.418-7.697-7.696-4.418 4.417c-.672.672-1.724.78-2.516.255-3.734-2.465-7.833-4.167-12.182-5.056-.931-.19-1.599-1.009-1.599-1.959v-6.237h-10.885v6.237c0 .95-.668 1.769-1.599 1.959-4.349.89-8.447 2.591-12.182 5.056-.793.523-1.845.417-2.516-.255l-4.418-4.417-7.696 7.696 4.417 4.418c.672.672.778 1.723.255 2.516-2.466 3.735-4.167 7.833-5.057 12.181-.19.931-1.009 1.599-1.959 1.599h-6.235v10.884h6.236c.95 0 1.769.668 1.959 1.599.89 4.348 2.591 8.446 5.057 12.181.523.793.417 1.844-.255 2.516l-4.417 4.418 7.696 7.696 4.418-4.417c.672-.671 1.722-.779 2.516-.255 3.735 2.465 7.834 4.167 12.182 5.056.931.19 1.599 1.009 1.599 1.959v6.238zm5.442-18.158c-13.385 0-24.274-10.89-24.274-24.275s10.89-24.275 24.274-24.275c13.386 0 24.275 10.89 24.275 24.275s-10.889 24.275-24.275 24.275zm0-44.55c-11.18 0-20.274 9.095-20.274 20.275s9.095 20.275 20.274 20.275 20.275-9.095 20.275-20.275-9.095-20.275-20.275-20.275z" fill="#690589"/></g><g><path d="m137.484 100.72v-11.173h-6.183c-.718-3.512-2.105-6.779-4.014-9.67l4.378-4.378-7.901-7.901-4.378 4.378c-2.892-1.909-6.158-3.295-9.67-4.014v-6.182h-11.173v6.183c-3.512.718-6.778 2.105-9.67 4.014l-4.378-4.378-7.901 7.901 4.378 4.378c-1.909 2.892-3.295 6.158-4.014 9.67h-6.183v11.173h6.183c.718 3.512 2.105 6.779 4.014 9.67l-4.378 4.378 7.901 7.9 4.378-4.378c2.892 1.909 6.158 3.295 9.67 4.014v6.183h11.173v-6.183c3.512-.718 6.779-2.105 9.67-4.014l4.378 4.378 7.901-7.9-4.378-4.378c1.909-2.891 3.295-6.158 4.014-9.67h6.183zm-33.354 11.135c-9.234 0-16.721-7.486-16.721-16.721 0-9.234 7.486-16.721 16.721-16.721s16.721 7.486 16.721 16.721c0 9.234-7.486 16.721-16.721 16.721z" fill="#8852a8"/></g><g><path d="m109.717 130.488h-11.174c-1.104 0-2-.896-2-2v-4.597c-2.586-.68-5.057-1.706-7.378-3.063l-3.256 3.256c-.75.75-2.078.75-2.828 0l-7.9-7.901c-.375-.375-.586-.884-.586-1.414 0-.531.211-1.039.586-1.414l3.256-3.256c-1.356-2.32-2.383-4.791-3.063-7.378h-4.597c-1.104 0-2-.896-2-2v-11.174c0-1.104.896-2 2-2h4.597c.681-2.586 1.707-5.058 3.063-7.378l-3.256-3.256c-.375-.375-.586-.883-.586-1.414 0-.53.211-1.039.586-1.414l7.9-7.901c.75-.75 2.078-.75 2.828 0l3.256 3.256c2.321-1.357 4.792-2.383 7.378-3.063v-4.597c0-1.104.896-2 2-2h11.174c1.104 0 2 .896 2 2v4.597c2.586.68 5.057 1.706 7.378 3.063l3.256-3.256c.75-.75 2.078-.75 2.828 0l7.9 7.901c.375.375.586.884.586 1.414 0 .531-.211 1.039-.586 1.414l-3.256 3.256c1.356 2.32 2.383 4.792 3.063 7.378h4.597c1.104 0 2 .896 2 2v11.173c0 1.104-.896 2-2 2h-4.597c-.681 2.587-1.707 5.058-3.063 7.378l3.256 3.256c.375.375.586.883.586 1.414 0 .53-.211 1.039-.586 1.414l-7.9 7.901c-.75.75-2.078.75-2.828 0l-3.256-3.256c-2.321 1.357-4.792 2.383-7.378 3.063v4.597c0 1.105-.896 2.001-2 2.001zm-9.174-4h7.174v-4.183c0-.95.668-1.769 1.6-1.959 3.199-.654 6.217-1.907 8.969-3.723.791-.525 1.844-.417 2.516.255l2.964 2.963 5.072-5.072-2.964-2.963c-.672-.671-.778-1.723-.255-2.516 1.815-2.749 3.067-5.767 3.724-8.969.19-.931 1.009-1.599 1.959-1.599h4.183v-7.173h-4.183c-.95 0-1.769-.668-1.959-1.599-.655-3.202-1.908-6.22-3.724-8.969-.523-.793-.417-1.845.255-2.516l2.964-2.963-5.072-5.072-2.964 2.963c-.671.672-1.724.778-2.516.255-2.751-1.816-5.769-3.068-8.969-3.723-.932-.19-1.6-1.009-1.6-1.959v-4.186h-7.174v4.183c0 .95-.668 1.769-1.6 1.959-3.2.655-6.218 1.907-8.969 3.723-.792.522-1.844.417-2.516-.255l-2.964-2.963-5.071 5.073 2.964 2.963c.672.671.778 1.723.255 2.516-1.815 2.75-3.068 5.767-3.724 8.969-.19.931-1.009 1.599-1.959 1.599h-4.183v7.173h4.183c.95 0 1.769.668 1.959 1.599.656 3.202 1.908 6.22 3.724 8.969.523.793.417 1.845-.255 2.516l-2.964 2.963 5.072 5.072 2.964-2.963c.673-.671 1.723-.779 2.516-.255 2.752 1.816 5.77 3.069 8.969 3.723.932.19 1.6 1.009 1.6 1.959v4.185zm3.587-12.634c-10.322 0-18.721-8.398-18.721-18.721s8.398-18.721 18.721-18.721 18.721 8.398 18.721 18.721-8.399 18.721-18.721 18.721zm0-33.441c-8.117 0-14.721 6.604-14.721 14.721s6.604 14.721 14.721 14.721 14.721-6.604 14.721-14.721-6.604-14.721-14.721-14.721z" fill="#690589"/></g><g><path d="m109.717 130.488h-11.174c-1.104 0-2-.896-2-2v-4.597c-2.586-.68-5.057-1.706-7.378-3.063l-3.256 3.256c-.75.75-2.078.75-2.828 0l-7.9-7.901c-.375-.375-.586-.884-.586-1.414 0-.531.211-1.039.586-1.414l3.256-3.256c-1.356-2.32-2.383-4.791-3.063-7.378h-4.597c-1.104 0-2-.896-2-2v-11.174c0-1.104.896-2 2-2h4.597c.681-2.586 1.707-5.058 3.063-7.378l-3.256-3.256c-.375-.375-.586-.883-.586-1.414 0-.53.211-1.039.586-1.414l7.9-7.901c.75-.75 2.078-.75 2.828 0l3.256 3.256c2.321-1.357 4.792-2.383 7.378-3.063v-4.597c0-1.104.896-2 2-2h11.174c1.104 0 2 .896 2 2v4.597c2.586.68 5.057 1.706 7.378 3.063l3.256-3.256c.75-.75 2.078-.75 2.828 0l7.9 7.901c.375.375.586.884.586 1.414 0 .531-.211 1.039-.586 1.414l-3.256 3.256c1.356 2.32 2.383 4.792 3.063 7.378h4.597c1.104 0 2 .896 2 2v11.173c0 1.104-.896 2-2 2h-4.597c-.681 2.587-1.707 5.058-3.063 7.378l3.256 3.256c.375.375.586.883.586 1.414 0 .53-.211 1.039-.586 1.414l-7.9 7.901c-.75.75-2.078.75-2.828 0l-3.256-3.256c-2.321 1.357-4.792 2.383-7.378 3.063v4.597c0 1.105-.896 2.001-2 2.001zm-9.174-4h7.174v-4.183c0-.95.668-1.769 1.6-1.959 3.199-.654 6.217-1.907 8.969-3.723.791-.525 1.844-.417 2.516.255l2.964 2.963 5.072-5.072-2.964-2.963c-.672-.671-.778-1.723-.255-2.516 1.815-2.749 3.067-5.767 3.724-8.969.19-.931 1.009-1.599 1.959-1.599h4.183v-7.173h-4.183c-.95 0-1.769-.668-1.959-1.599-.655-3.202-1.908-6.22-3.724-8.969-.523-.793-.417-1.845.255-2.516l2.964-2.963-5.072-5.072-2.964 2.963c-.671.672-1.724.778-2.516.255-2.751-1.816-5.769-3.068-8.969-3.723-.932-.19-1.6-1.009-1.6-1.959v-4.186h-7.174v4.183c0 .95-.668 1.769-1.6 1.959-3.2.655-6.218 1.907-8.969 3.723-.792.522-1.844.417-2.516-.255l-2.964-2.963-5.071 5.073 2.964 2.963c.672.671.778 1.723.255 2.516-1.815 2.75-3.068 5.767-3.724 8.969-.19.931-1.009 1.599-1.959 1.599h-4.183v7.173h4.183c.95 0 1.769.668 1.959 1.599.656 3.202 1.908 6.22 3.724 8.969.523.793.417 1.845-.255 2.516l-2.964 2.963 5.072 5.072 2.964-2.963c.673-.671 1.723-.779 2.516-.255 2.752 1.816 5.77 3.069 8.969 3.723.932.19 1.6 1.009 1.6 1.959v4.185zm3.587-12.634c-10.322 0-18.721-8.398-18.721-18.721s8.398-18.721 18.721-18.721 18.721 8.398 18.721 18.721-8.399 18.721-18.721 18.721zm0-33.441c-8.117 0-14.721 6.604-14.721 14.721s6.604 14.721 14.721 14.721 14.721-6.604 14.721-14.721-6.604-14.721-14.721-14.721z" fill="#690589"/></g><g><path d="m14 204.911v-171.429c0-5.351 4.338-9.688 9.688-9.688h-10c-5.35 0-9.688 4.337-9.688 9.688v171.429c0 5.351 4.338 9.688 9.688 9.688h10c-5.35.001-9.688-4.337-9.688-9.688z" fill="#fff"/></g><g><path d="m242 33.482v171.429c0 5.351-4.338 9.688-9.688 9.688h10c5.351 0 9.688-4.337 9.688-9.688v-171.429c0-5.351-4.338-9.688-9.688-9.688h-10c5.35 0 9.688 4.337 9.688 9.688z" fill="#d6d1cf"/></g><g><path d="m242.312 216.6h-228.624c-6.445 0-11.688-5.244-11.688-11.688v-171.43c0-6.445 5.243-11.688 11.688-11.688h228.623c6.445 0 11.688 5.244 11.688 11.688v171.429c.001 6.445-5.242 11.689-11.687 11.689zm-228.624-190.806c-4.239 0-7.688 3.449-7.688 7.688v171.429c0 4.239 3.449 7.688 7.688 7.688h228.623c4.239 0 7.688-3.449 7.688-7.688v-171.429c0-4.239-3.449-7.688-7.688-7.688z" fill="#690589"/></g><g><path d="m14 67.717c-1.104 0-2-.896-2-2v-12c0-1.104.896-2 2-2s2 .896 2 2v12c0 1.104-.896 2-2 2z" fill="#690589"/></g><g><path d="m112.483 147.101c-.811 0-1.574-.497-1.874-1.302l-9.657-25.903c-.386-1.035.141-2.187 1.176-2.573 1.03-.386 2.187.14 2.572 1.175l9.657 25.903c.386 1.035-.141 2.187-1.176 2.573-.229.086-.465.127-.698.127z" fill="#690589"/></g><g><path d="m133.776 184.716-14.415-40.31c-1.488-4.161-6.067-6.327-10.228-4.84-4.16 1.488-6.326 6.066-4.839 10.227l16.843 47.098c1.16 3.242 4.22 5.308 7.529 5.308.629 0 1.266-.074 1.901-.229l31.694-7.737v37.974h89.739v-40.207c0-8.026-6.506-14.533-14.532-14.533h-70.57z" fill="#526faa"/></g><g><g><path d="m237.468 177.467h-8c8.026 0 14.532 6.506 14.532 14.533v40.206h8v-40.206c0-8.026-6.506-14.533-14.532-14.533z" fill="#34518c"/></g></g><g><path d="m252 234.206h-89.738c-1.104 0-2-.896-2-2v-35.427l-29.219 7.132c-.778.19-1.578.287-2.376.287-4.21 0-7.992-2.666-9.412-6.634l-16.843-47.098c-1.856-5.191.856-10.926 6.048-12.783 5.19-1.854 10.928.857 12.784 6.05l13.823 38.653 31.402-6.872c.141-.031.284-.046.428-.046h70.57c9.116 0 16.532 7.417 16.532 16.533v40.206c.001 1.104-.895 1.999-1.999 1.999zm-87.738-4h85.738v-38.206c0-6.911-5.622-12.533-12.532-12.533h-70.354l-32.909 7.202c-.983.218-1.972-.333-2.311-1.28l-14.415-40.31c-1.114-3.115-4.55-4.743-7.672-3.63-3.114 1.114-4.742 4.555-3.629 7.67l16.843 47.098c.853 2.381 3.121 3.981 5.646 3.981.479 0 .959-.058 1.427-.172l31.693-7.736c.599-.147 1.226-.009 1.71.37.482.379.765.959.765 1.573z" fill="#690589"/></g><g><path d="m236.314 234.206c-1.104 0-2-.896-2-2v-28.606c0-1.104.896-2 2-2s2 .896 2 2v28.606c0 1.105-.895 2-2 2z" fill="#690589"/></g><g><path d="m188.585 159.229h22.56v21.688c0 6.23-5.05 11.28-11.28 11.28-6.23 0-11.28-5.05-11.28-11.28z" fill="#ff9f70"/></g><g><path d="m199.865 194.197c-7.323 0-13.28-5.958-13.28-13.28v-21.688c0-1.104.896-2 2-2h22.56c1.104 0 2 .896 2 2v21.688c0 7.322-5.957 13.28-13.28 13.28zm-9.28-32.968v19.688c0 5.117 4.163 9.28 9.28 9.28 5.116 0 9.279-4.163 9.279-9.28v-19.688z" fill="#690589"/></g><g><path d="m199.865 173.783c-12.569 0-22.758-10.321-22.758-23.053v-15.96c0-12.732 10.189-23.053 22.758-23.053 12.569 0 22.757 10.321 22.757 23.053v15.96c0 12.732-10.188 23.053-22.757 23.053z" fill="#ff9f70"/></g><g><path d="m199.865 175.783c-13.651 0-24.758-11.239-24.758-25.053v-15.96c0-13.814 11.106-25.053 24.758-25.053s24.757 11.239 24.757 25.053v15.96c0 13.814-11.105 25.053-24.757 25.053zm0-62.065c-11.446 0-20.758 9.444-20.758 21.053v15.96c0 11.608 9.312 21.053 20.758 21.053 11.445 0 20.757-9.444 20.757-21.053v-15.96c0-11.609-9.311-21.053-20.757-21.053z" fill="#690589"/></g><g><path d="m78.646 147.1h-56.846c-1.104 0-2-.896-2-2s.896-2 2-2h56.847c1.104 0 2 .896 2 2s-.896 2-2.001 2z" fill="#690589"/></g><g><path d="m78.646 168.278h-56.846c-1.104 0-2-.896-2-2s.896-2 2-2h56.847c1.104 0 2 .896 2 2s-.896 2-2.001 2z" fill="#690589"/></g><g><path d="m50.224 189.457h-28.424c-1.104 0-2-.896-2-2s.896-2 2-2h28.424c1.104 0 2 .896 2 2s-.896 2-2 2z" fill="#690589"/></g></g></svg>